<mxfile host="app.diagrams.net" modified="2024-07-05T12:32:16.552Z" agent="Mozilla/5.0 (Windows NT 10.0; Win64; x64) AppleWebKit/537.36 (KHTML, like Gecko) Chrome/125.0.0.0 Safari/537.36 Edg/125.0.0.0" etag="ib7tV2OtGizKsMJcPJeq" version="24.6.4" type="github">
  <diagram name="Page-1" id="e7e014a7-5840-1c2e-5031-d8a46d1fe8dd">
    <mxGraphModel dx="832" dy="491" grid="1" gridSize="10" guides="1" tooltips="1" connect="1" arrows="1" fold="1" page="1" pageScale="1" pageWidth="1169" pageHeight="826" background="#000033" math="0" shadow="0">
      <root>
        <mxCell id="0" />
        <mxCell id="1" parent="0" />
        <mxCell id="2" value="karyawan" style="swimlane;whiteSpace=wrap;strokeColor=#FFFFFF;fillColor=default;" parent="1" vertex="1">
          <mxGeometry x="164.5" y="128" width="280" height="522" as="geometry" />
        </mxCell>
        <mxCell id="No-YN4gegxSg5bePHzrH-41" value="" style="ellipse;html=1;shape=startState;fillColor=#FFFFFF;strokeColor=#FFFFFF;" vertex="1" parent="2">
          <mxGeometry x="125" y="42" width="30" height="30" as="geometry" />
        </mxCell>
        <mxCell id="No-YN4gegxSg5bePHzrH-42" value="" style="edgeStyle=orthogonalEdgeStyle;html=1;verticalAlign=bottom;endArrow=open;endSize=8;strokeColor=#FFFFFF;rounded=0;" edge="1" source="No-YN4gegxSg5bePHzrH-41" parent="2">
          <mxGeometry relative="1" as="geometry">
            <mxPoint x="140" y="132" as="targetPoint" />
          </mxGeometry>
        </mxCell>
        <mxCell id="No-YN4gegxSg5bePHzrH-43" value="&lt;font color=&quot;#ffffff&quot;&gt;input username dan password&lt;/font&gt;" style="html=1;whiteSpace=wrap;fillColor=none;strokeColor=#FFFFFF;rounded=1;" vertex="1" parent="2">
          <mxGeometry x="77.75" y="132" width="124.5" height="50" as="geometry" />
        </mxCell>
        <mxCell id="No-YN4gegxSg5bePHzrH-55" value="&lt;font color=&quot;#ffffff&quot;&gt;mulai&lt;/font&gt;" style="text;html=1;align=center;verticalAlign=middle;whiteSpace=wrap;rounded=0;" vertex="1" parent="2">
          <mxGeometry x="110" y="22" width="60" height="30" as="geometry" />
        </mxCell>
        <mxCell id="3" value="sistem" style="swimlane;whiteSpace=wrap;strokeColor=#FFFFFF;startSize=23;" parent="1" vertex="1">
          <mxGeometry x="444.5" y="128" width="280" height="522" as="geometry" />
        </mxCell>
        <mxCell id="No-YN4gegxSg5bePHzrH-49" style="edgeStyle=orthogonalEdgeStyle;rounded=0;orthogonalLoop=1;jettySize=auto;html=1;exitX=0.5;exitY=1;exitDx=0;exitDy=0;entryX=0.5;entryY=0;entryDx=0;entryDy=0;strokeColor=#FFFFFF;" edge="1" parent="3" source="No-YN4gegxSg5bePHzrH-44" target="No-YN4gegxSg5bePHzrH-47">
          <mxGeometry relative="1" as="geometry" />
        </mxCell>
        <mxCell id="No-YN4gegxSg5bePHzrH-44" value="&lt;font color=&quot;#ffffff&quot;&gt;validasi username dan password&lt;/font&gt;" style="html=1;whiteSpace=wrap;fillColor=none;strokeColor=#FFFFFF;rounded=1;" vertex="1" parent="3">
          <mxGeometry x="77.5" y="182" width="124.5" height="50" as="geometry" />
        </mxCell>
        <mxCell id="No-YN4gegxSg5bePHzrH-53" style="edgeStyle=orthogonalEdgeStyle;rounded=0;orthogonalLoop=1;jettySize=auto;html=1;exitX=0.5;exitY=1;exitDx=0;exitDy=0;entryX=0.5;entryY=0;entryDx=0;entryDy=0;strokeColor=#FFFFFF;" edge="1" parent="3" source="No-YN4gegxSg5bePHzrH-45" target="No-YN4gegxSg5bePHzrH-52">
          <mxGeometry relative="1" as="geometry" />
        </mxCell>
        <mxCell id="No-YN4gegxSg5bePHzrH-45" value="&lt;font color=&quot;#ffffff&quot;&gt;menu utama&lt;/font&gt;" style="html=1;whiteSpace=wrap;fillColor=none;strokeColor=#FFFFFF;rounded=1;" vertex="1" parent="3">
          <mxGeometry x="77.5" y="352" width="124.5" height="50" as="geometry" />
        </mxCell>
        <mxCell id="No-YN4gegxSg5bePHzrH-50" style="edgeStyle=orthogonalEdgeStyle;rounded=0;orthogonalLoop=1;jettySize=auto;html=1;exitX=0.5;exitY=1;exitDx=0;exitDy=0;entryX=0.5;entryY=0;entryDx=0;entryDy=0;strokeColor=#FFFFFF;" edge="1" parent="3" source="No-YN4gegxSg5bePHzrH-47" target="No-YN4gegxSg5bePHzrH-45">
          <mxGeometry relative="1" as="geometry" />
        </mxCell>
        <mxCell id="No-YN4gegxSg5bePHzrH-47" value="" style="rhombus;whiteSpace=wrap;html=1;strokeColor=#FFFFFF;fillColor=#FF6666;" vertex="1" parent="3">
          <mxGeometry x="117.5" y="264" width="44.5" height="42" as="geometry" />
        </mxCell>
        <mxCell id="No-YN4gegxSg5bePHzrH-52" value="" style="ellipse;html=1;shape=endState;fillColor=#FFFFFF;strokeColor=#FFFFFF;" vertex="1" parent="3">
          <mxGeometry x="124.5" y="452" width="30" height="30" as="geometry" />
        </mxCell>
        <mxCell id="No-YN4gegxSg5bePHzrH-54" value="&lt;font color=&quot;#ffffff&quot;&gt;selesai&lt;/font&gt;" style="text;html=1;align=center;verticalAlign=middle;whiteSpace=wrap;rounded=0;" vertex="1" parent="3">
          <mxGeometry x="110.5" y="482" width="60" height="30" as="geometry" />
        </mxCell>
        <mxCell id="No-YN4gegxSg5bePHzrH-58" value="&lt;font color=&quot;#ffffff&quot;&gt;salah&lt;/font&gt;" style="text;html=1;align=center;verticalAlign=middle;whiteSpace=wrap;rounded=0;" vertex="1" parent="3">
          <mxGeometry x="57.5" y="255" width="60" height="30" as="geometry" />
        </mxCell>
        <mxCell id="No-YN4gegxSg5bePHzrH-57" value="&lt;font color=&quot;#ffffff&quot;&gt;benar&lt;/font&gt;" style="text;html=1;align=center;verticalAlign=middle;whiteSpace=wrap;rounded=0;" vertex="1" parent="3">
          <mxGeometry x="140.5" y="306" width="60" height="30" as="geometry" />
        </mxCell>
        <mxCell id="No-YN4gegxSg5bePHzrH-48" style="edgeStyle=orthogonalEdgeStyle;rounded=0;orthogonalLoop=1;jettySize=auto;html=1;exitX=1;exitY=0.5;exitDx=0;exitDy=0;entryX=0.5;entryY=0;entryDx=0;entryDy=0;strokeColor=#FFFFFF;" edge="1" parent="1" source="No-YN4gegxSg5bePHzrH-43" target="No-YN4gegxSg5bePHzrH-44">
          <mxGeometry relative="1" as="geometry" />
        </mxCell>
        <mxCell id="No-YN4gegxSg5bePHzrH-51" style="edgeStyle=orthogonalEdgeStyle;rounded=0;orthogonalLoop=1;jettySize=auto;html=1;exitX=0;exitY=0.5;exitDx=0;exitDy=0;entryX=0.5;entryY=1;entryDx=0;entryDy=0;strokeColor=#FFFFFF;" edge="1" parent="1" source="No-YN4gegxSg5bePHzrH-47" target="No-YN4gegxSg5bePHzrH-43">
          <mxGeometry relative="1" as="geometry" />
        </mxCell>
      </root>
    </mxGraphModel>
  </diagram>
</mxfile>
